# xmcd
# 
# Track frame offsets:
#     150
#     14918
#     31038
#     48260
#     73500
#     90667
#     107110
#     124119
#     141783
#     163596
#     177395
#     195058
#     210688
# 
# Disc length: 3009
# 
# Revision: 0
# Processed by: cddbd v1.5.2PL0 Copyright (c) Steve Scherf et al.
# Submitted via: fre:ac v1.0.31
# 
DISCID=ad0bbf0d
DTITLE=Mr. Groove Band - Rocket 88 Tribute To Ike Turner
DYEAR=2009
DGENRE=Blues
TTITLE0=ROCKET 88
TTITLE1=NO MORE DOGGIN
TTITLE2=ROCK ME BABY
TTITLE3=I SMELL TROUBLE
TTITLE4=FUNKY MULE
TTITLE5=BOLD SOUL SISTER
TTITLE6=RIVER DEEP, Mountain High
TTITLE7=I Wanna Take You Higher
TTITLE8=PROUD MARY
TTITLE9=TAKING BACK MY NAME
TTITLE10=COME TOGETHER
TTITLE11=NUTBUSH City Limits
TTITLE12=Prancin
EXTD=
EXTT0=
EXTT1=
EXTT2=
EXTT3=
EXTT4=
EXTT5=
EXTT6=
EXTT7=
EXTT8=
EXTT9=
EXTT10=
EXTT11=
EXTT12=
PLAYORDER=
